# xmcd
#
# Track frame offsets:
#	150
#	14412
#	25745
#	38442
#	51365
#	64525
#	76470
#	87227
#	99122
#	112920
#	124017
#	137832
#	151402
#	168597
#
# Disc length: 2411 seconds
#
# Revision: 3
# Processed by: cddbd v1.5.2PL0 Copyright (c) Steve Scherf et al.
# Submitted via: EZCDAudioConverter 8.2.2.1
#
DISCID=a409690e
DTITLE=ALTEMAR DUTRA - DOIS CDS COLEÇÃO BIS [CD 01) [CD 526648-2) EMI
DYEAR=2000
DGENRE=MPB
TTITLE0=BRIGAS (BY GILMAR SINISTRO)
TTITLE1=SENTIMENTAL DEMAIS (BY GILMAR SINISTRO)
TTITLE2=TUDO DE MIM (BY GILMAR SINISTRO)
TTITLE3=A PRETENDIDA (LA PRETENDIDA) (BY GILMAR SINISTRO)
TTITLE4=SOMOS IGUAIS (BY GILMAR SINISTRO)
TTITLE5=DAI-ME UM LUAR (BY GILMAR SINISTRO)
TTITLE6=VIDA MINHA (VIDA MIA) (BY GILMAR SINISTRO)
TTITLE7=LAURA (BY GILMAR SINISTRO)
TTITLE8=OFERENDA (BY GILMAR SINISTRO)
TTITLE9=VAI ANDORINHA (VOLA COLOMBA) (BY GILMAR SINISTRO)
TTITLE10=BOM DIA TRISTEZA (BY GILMAR SINISTRO)
TTITLE11=AS FLORES DO JARDIM DA NOSSA CASA (BY GILMAR SINISTRO)
TTITLE12=CONCERTO PARA UM VERÃO (CONCERTO POUR UN ETÉ) (BY GILMAR SINISTRO)
TTITLE13=MINHA ORAÇÃO (MY PRAYER) (MI ORACION) (BY GILMAR SINISTRO)
EXTD=
EXTT0=
EXTT1=
EXTT2=
EXTT3=
EXTT4=
EXTT5=
EXTT6=
EXTT7=
EXTT8=
EXTT9=
EXTT10=
EXTT11=
EXTT12=
EXTT13=
PLAYORDER=
